<?xml version="1.0" encoding="UTF-8" standalone="no"?>
<!DOCTYPE svg PUBLIC "-//W3C//DTD SVG 1.1//EN" "http://www.w3.org/Graphics/SVG/1.1/DTD/svg11.dtd">
<svg width="100%" height="100%" viewBox="0 0 1440 2560" version="1.1" xmlns="http://www.w3.org/2000/svg" xmlns:xlink="http://www.w3.org/1999/xlink" xml:space="preserve" xmlns:serif="http://www.serif.com/" style="fill-rule:evenodd;clip-rule:evenodd;stroke-linejoin:round;stroke-miterlimit:2;">
    <g transform="matrix(1,0,0,1,-1490,-2610)">
        <rect id="Mesa-de-trabajo5" serif:id="Mesa de trabajo5" x="1490" y="2610" width="1440" height="2560" style="fill:none;"/>
        <clipPath id="_clip1">
            <rect id="Mesa-de-trabajo51" serif:id="Mesa de trabajo5" x="1490" y="2610" width="1440" height="2560"/>
        </clipPath>
        <g clip-path="url(#_clip1)">
            <g transform="matrix(1,0,0,1,1490,2610)">
                <rect x="-9" y="0" width="1449" height="2561" style="fill:rgb(217,232,211);"/>
            </g>
            <path d="M2931,5163L2931,5023C2931,5023 2792.833,4955.333 2682,4950C2571.167,4944.667 2408.667,5036.5 2307,5045C2214.421,5052.74 2178.79,5009.672 2087,5024C1955.667,5044.5 1491,5114 1491,5114L1491,5175L2882,5168" style="fill:rgb(119,156,101);"/>
            <path d="M1481,5095.128C1481,5095.128 1679.5,4994.021 1797,4987C1912.603,4980.092 2164.346,5086.681 2279,5103C2461.667,5129 2937,5168 2937,5168L1490,5173L1481,5095.128Z" style="fill:rgb(170,191,159);"/>
            <g transform="matrix(1.165842,0,0,1.165842,1095.95297,2465.772277)">
                <path d="M538.979,392.96C512.496,473.658 436.507,532 347,532C235.513,532 145,441.487 145,330C145,220.666 232.052,131.503 340.567,128.101L340.567,124.569L486.745,124.569C527.558,89.277 586.469,67.1 651.93,67.1C711.216,67.1 765.13,85.29 805.092,114.94C833.372,74.421 878.169,48.229 928.554,48.229C957.877,48.229 985.308,57.101 1008.691,72.504C1041.439,18.748 1105.655,-17.817 1179.446,-17.817C1275.203,-17.817 1354.837,43.758 1370.502,124.569L1577.442,124.569L1577.442,207.368C1609.44,243.113 1628.907,290.305 1628.907,342.008C1628.907,453.495 1538.393,544.008 1426.907,544.008C1315.42,544.008 1224.907,453.495 1224.907,342.008C1224.907,334.668 1225.299,327.419 1226.064,320.281C1211.129,323.548 1195.515,325.282 1179.446,325.282C1137.25,325.282 1098.186,313.326 1066.345,293.036C1040.656,347.306 988.57,384.467 928.554,384.467C891.466,384.467 857.406,370.275 830.732,346.624C790.055,389.367 725.082,417.062 651.93,417.062C610.724,417.062 572.114,408.274 538.979,392.96Z" style="fill:white;fill-opacity:0.64;"/>
            </g>
            <g transform="matrix(1.47619,0,0,1.47619,1151.142857,1497.071429)">
                <circle cx="888" cy="885" r="147" style="fill:rgb(251,233,119);"/>
            </g>
            <g transform="matrix(1.165842,0,0,1.165842,1100.95297,2373.772277)">
                <path d="M538.979,392.96C512.496,473.658 436.507,532 347,532C235.513,532 145,441.487 145,330C145,220.666 232.052,131.503 340.567,128.101L340.567,124.569L486.745,124.569C527.558,89.277 586.469,67.1 651.93,67.1C711.216,67.1 765.13,85.29 805.092,114.94C833.372,74.421 878.169,48.229 928.554,48.229C957.877,48.229 985.308,57.101 1008.691,72.504C1041.439,18.748 1105.655,-17.817 1179.446,-17.817C1275.203,-17.817 1354.837,43.758 1370.502,124.569L1577.442,124.569L1577.442,207.368C1609.44,243.113 1628.907,290.305 1628.907,342.008C1628.907,453.495 1538.393,544.008 1426.907,544.008C1315.42,544.008 1224.907,453.495 1224.907,342.008C1224.907,334.668 1225.299,327.419 1226.064,320.281C1211.129,323.548 1195.515,325.282 1179.446,325.282C1137.25,325.282 1098.186,313.326 1066.345,293.036C1040.656,347.306 988.57,384.467 928.554,384.467C891.466,384.467 857.406,370.275 830.732,346.624C790.055,389.367 725.082,417.062 651.93,417.062C610.724,417.062 572.114,408.274 538.979,392.96Z" style="fill:white;"/>
            </g>
        </g>
    </g>
</svg>
