<?xml version="1.0" encoding="UTF-8" standalone="no"?>
<!DOCTYPE svg PUBLIC "-//W3C//DTD SVG 1.1//EN" "http://www.w3.org/Graphics/SVG/1.1/DTD/svg11.dtd">
<svg width="100%" height="100%" viewBox="0 0 1440 2560" version="1.1" xmlns="http://www.w3.org/2000/svg" xmlns:xlink="http://www.w3.org/1999/xlink" xml:space="preserve" xmlns:serif="http://www.serif.com/" style="fill-rule:evenodd;clip-rule:evenodd;stroke-linejoin:round;stroke-miterlimit:2;">
    <g transform="matrix(1,0,0,1,-1490,0)">
        <rect id="Mesa-de-trabajo2" serif:id="Mesa de trabajo2" x="1490" y="0" width="1440" height="2560" style="fill:none;"/>
        <clipPath id="_clip1">
            <rect id="Mesa-de-trabajo21" serif:id="Mesa de trabajo2" x="1490" y="0" width="1440" height="2560"/>
        </clipPath>
        <g clip-path="url(#_clip1)">
            <g transform="matrix(1,0,0,1,1490,0)">
                <rect x="-9" y="0" width="1449" height="2561" style="fill:rgb(209,198,194);"/>
            </g>
            <g transform="matrix(1,0,0,5.738035,2,-11581.806045)">
                <path d="M2930,2105.826L2930,2377.174C2930,2411.848 2768.465,2440 2569.5,2440L1848.5,2440C1649.535,2440 1488,2411.848 1488,2377.174L1488,2105.826C1488,2071.152 1649.535,2043 1848.5,2043L2569.5,2043C2768.465,2043 2930,2071.152 2930,2105.826Z" style="fill:rgb(247,247,247);"/>
            </g>
        </g>
    </g>
</svg>
