<?xml version="1.0" encoding="UTF-8" standalone="no"?>
<!DOCTYPE svg PUBLIC "-//W3C//DTD SVG 1.1//EN" "http://www.w3.org/Graphics/SVG/1.1/DTD/svg11.dtd">
<svg width="100%" height="100%" viewBox="0 0 1440 2560" version="1.1" xmlns="http://www.w3.org/2000/svg" xmlns:xlink="http://www.w3.org/1999/xlink" xml:space="preserve" xmlns:serif="http://www.serif.com/" style="fill-rule:evenodd;clip-rule:evenodd;stroke-linejoin:round;stroke-miterlimit:2;">
    <g transform="matrix(1,0,0,1,-1490,0)">
        <rect id="Mesa-de-trabajo2" serif:id="Mesa de trabajo2" x="1490" y="0" width="1440" height="2560" style="fill:none;"/>
        <clipPath id="_clip1">
            <rect id="Mesa-de-trabajo21" serif:id="Mesa de trabajo2" x="1490" y="0" width="1440" height="2560"/>
        </clipPath>
        <g clip-path="url(#_clip1)">
            <g transform="matrix(1,0,0,1,1490,0)">
                <rect x="-9" y="0" width="1449" height="2561" style="fill:rgb(217,232,211);"/>
            </g>
            <g transform="matrix(1,0,0,6.939547,2,-14529.493703)">
                <path d="M2930,2094.949L2930,2388.051C2930,2416.723 2768.465,2440 2569.5,2440L1848.5,2440C1649.535,2440 1488,2416.723 1488,2388.051L1488,2094.949C1488,2066.277 1649.535,2043 1848.5,2043L2569.5,2043C2768.465,2043 2930,2066.277 2930,2094.949Z" style="fill:rgb(247,247,247);"/>
            </g>
            <g transform="matrix(1.384019,0,0,1.182836,2792.269776,1657.433727)">
                <g transform="matrix(4.322581,0,0,4.322581,-916.25356,379.677419)">
                    <path d="M19,48.79L19,63L15,63L15,48.79C15.657,48.932 16.328,49.002 17,49C17.672,49.001 18.343,48.931 19,48.79Z" style="fill:rgb(113,66,38);fill-rule:nonzero;"/>
                </g>
                <g transform="matrix(4.322581,0,0,4.322581,-916.25356,379.677419)">
                    <path d="M34,46.81L34,63L30,63L30,46.8C30.658,46.932 31.328,46.999 32,47C32.671,46.998 33.341,46.934 34,46.81Z" style="fill:rgb(124,64,38);fill-rule:nonzero;"/>
                </g>
                <g transform="matrix(4.322581,0,0,4.322581,-916.25356,379.677419)">
                    <path d="M49,53L49,63L45,63L45,53L45.03,52.82C46.332,53.06 47.668,53.06 48.97,52.82L49,53Z" style="fill:rgb(154,105,72);fill-rule:nonzero;"/>
                </g>
                <g transform="matrix(4.322581,0,0,4.322581,-916.25356,379.677419)">
                    <path d="M19,48.79C18.343,48.931 17.672,49.001 17,49C16.328,49.002 15.657,48.932 15,48.79C10.268,47.677 6.921,43.381 7,38.52C7,32.74 11.48,9 17,9C19.4,9 21.6,13.47 23.32,19L23.36,19.01C22.108,24.244 21.318,29.578 21,34.95C20.959,38.584 22.509,42.061 25.24,44.46C23.814,46.67 21.569,48.227 19,48.79Z" style="fill:rgb(87,105,57);fill-rule:nonzero;"/>
                </g>
                <g transform="matrix(4.322581,0,0,4.322581,-916.25356,379.677419)">
                    <path d="M37,43.57C36.998,44.264 37.078,44.955 37.24,45.63L37,45.69C36.063,46.214 35.051,46.592 34,46.81C33.341,46.934 32.671,46.998 32,47C31.328,46.999 30.658,46.932 30,46.8C28.239,46.44 26.6,45.634 25.24,44.46C22.509,42.061 20.959,38.584 21,34.95C21.318,29.578 22.108,24.244 23.36,19.01C25.38,10.06 28.5,1 32,1C36.11,1 39.69,13.47 41.58,23.61C38.82,30.34 37,40.25 37,43.57Z" style="fill:rgb(190,230,117);fill-rule:nonzero;"/>
                </g>
                <g transform="matrix(4.322581,0,0,4.322581,-916.25356,379.677419)">
                    <path d="M41.58,23.61C43.14,19.8 45,17 47,17C52.52,17 57,38.36 57,43.57C56.894,48.164 53.504,52.07 48.97,52.82C47.668,53.06 46.332,53.06 45.03,52.82C41.253,52.164 38.196,49.343 37.24,45.63C37.078,44.955 36.998,44.264 37,43.57C37,40.25 38.82,30.34 41.58,23.61Z" style="fill:rgb(109,192,70);fill-rule:nonzero;"/>
                </g>
                <g transform="matrix(4.322581,0,0,4.322581,-916.25356,379.677419)">
                    <path d="M17,49C16.328,49.002 15.657,48.932 15,48.79L15,63L17,63L17,53C17,51.903 17.903,51 19,51L19,48.79C18.343,48.931 17.672,49.001 17,49Z" style="fill:rgb(66,39,22);fill-rule:nonzero;"/>
                </g>
                <g transform="matrix(4.322581,0,0,4.322581,-916.25356,379.677419)">
                    <path d="M17,53L17,63L19,63L19,51C17.903,51 17,51.903 17,53Z" style="fill:rgb(113,66,38);fill-rule:nonzero;"/>
                </g>
                <g transform="matrix(4.322581,0,0,4.322581,-916.25356,379.677419)">
                    <path d="M32,51L32,63L34,63L34,49C32.903,49 32,49.903 32,51Z" style="fill:rgb(124,64,38);fill-rule:nonzero;"/>
                </g>
                <g transform="matrix(4.322581,0,0,4.322581,-916.25356,379.677419)">
                    <path d="M32,47C31.328,46.999 30.658,46.932 30,46.8L30,63L32,63L32,51C32,49.903 32.903,49 34,49L34,46.81C33.341,46.934 32.671,46.998 32,47Z" style="fill:rgb(89,52,30);fill-rule:nonzero;"/>
                </g>
                <g transform="matrix(4.322581,0,0,4.322581,-916.25356,379.677419)">
                    <path d="M48.97,52.82C47.668,53.06 46.332,53.06 45.03,52.82L45,53L45,63L47,63L47,57C47,55.903 47.903,55 49,55L49,53L48.97,52.82Z" style="fill:rgb(124,64,38);fill-rule:nonzero;"/>
                </g>
                <g transform="matrix(4.322581,0,0,4.322581,-916.25356,379.677419)">
                    <path d="M47,57L47,63L49,63L49,55C47.903,55 47,55.903 47,57Z" style="fill:rgb(154,105,72);fill-rule:nonzero;"/>
                </g>
                <g transform="matrix(4.322581,0,0,4.322581,-916.25356,379.677419)">
                    <path d="M42,41C42,33.992 43.965,25.018 45.14,20.277C45.511,18.795 46.703,17.652 48.2,17.344C47.836,17.13 47.423,17.011 47,17C45,17 43.14,19.8 41.58,23.61C38.82,30.34 37,40.25 37,43.57C36.998,44.264 37.078,44.955 37.24,45.63C38.196,49.343 41.253,52.164 45.03,52.82C46.332,53.06 47.668,53.06 48.97,52.82C52.907,52.142 56.044,49.105 56.85,45.192C54.443,48.122 42,50.786 42,41Z" style="fill:rgb(121,206,81);fill-rule:nonzero;"/>
                </g>
                <g transform="matrix(4.322581,0,0,4.322581,-916.25356,379.677419)">
                    <path d="M41.58,23.61C41.08,20.933 40.463,18.095 39.75,15.366C38.226,16.238 36.81,18.607 35.58,21.61C34.437,24.505 33.506,27.48 32.794,30.51C32.362,32.247 30.79,33.477 29,33.477C26.957,33.477 25.241,31.876 25.099,29.839C25.033,28.96 25,28.013 25,27C25,18.712 28.973,8.154 30.933,3.451C31.343,2.472 32.129,1.697 33.114,1.3C32.774,1.109 32.391,1.006 32,1C28.5,1 25.38,10.06 23.36,19.01C22.108,24.244 21.318,29.578 21,34.95C20.959,38.584 22.509,42.061 25.24,44.46C26.6,45.634 28.239,46.44 30,46.8C30.658,46.932 31.328,46.999 32,47C32.276,47 32.549,46.981 32.822,46.959C33.217,46.93 33.61,46.88 34,46.81C35.051,46.592 36.063,46.214 37,45.69L37.24,45.63C37.078,44.955 36.998,44.264 37,43.57C37,40.25 38.82,30.34 41.58,23.61Z" style="fill:rgb(191,222,135);fill-rule:nonzero;"/>
                </g>
                <g transform="matrix(4.322581,0,0,4.322581,-916.25356,379.677419)">
                    <path d="M21,34.95C21.318,29.578 22.108,24.244 23.36,19.01L23.32,19C22.728,17.026 21.99,15.1 21.112,13.236C20.003,16.437 19.084,19.701 18.36,23.01C17.108,28.244 16.318,33.578 16,38.95L16,38.981C16.001,39 16.001,39.019 16.001,39.038C16.001,40.135 15.098,41.038 14.001,41.038C13.529,41.038 13.073,40.871 12.712,40.567C11.908,39.892 11.314,39.001 11,38C10.233,30.326 14.176,17.352 16.053,11.732C16.405,10.683 17.179,9.826 18.187,9.37C17.833,9.14 17.422,9.012 17,9C11.48,9 7,32.74 7,38.52C6.921,43.381 10.268,47.677 15,48.79C15.657,48.932 16.328,49.002 17,49C17.672,49.001 18.343,48.931 19,48.79C19.412,48.698 19.818,48.58 20.215,48.436C22.279,47.695 24.045,46.298 25.24,44.46C22.509,42.061 20.959,38.584 21,34.95Z" style="fill:rgb(112,135,71);fill-rule:nonzero;"/>
                </g>
                <g transform="matrix(4.322581,0,0,4.322581,-916.25356,379.677419)">
                    <path d="M47.89,18.336C47.334,18.707 47,19.332 47,20C47,20.395 47.117,20.781 47.336,21.11C47.504,21.362 47.667,21.641 47.827,21.939C48.174,22.59 48.854,22.999 49.592,22.999C50.469,22.999 51.249,22.422 51.505,21.583C50.908,20.264 50.092,19.056 49.093,18.008C48.667,17.985 48.245,18.1 47.89,18.336ZM50.961,24.083C49.911,24.401 49.309,25.526 49.626,26.576C50.968,31.4 51.972,36.312 52.631,41.276C52.768,42.259 53.617,42.999 54.609,43C54.703,43 54.798,42.994 54.891,42.98C55.977,42.826 56.744,41.807 56.591,40.721C56.195,37.901 55.715,35.093 55.15,32.301C54.507,29.62 53.698,26.981 52.728,24.4C52.224,24.019 51.566,23.901 50.961,24.083Z" style="fill:rgb(104,206,57);fill-rule:nonzero;"/>
                </g>
                <g transform="matrix(4.322581,0,0,4.322581,-916.25356,379.677419)">
                    <path d="M32.024,7.745C32.248,8.885 32.573,10.003 32.994,11.086C33.405,12.422 33.594,13.794 34.144,15.105C34.376,15.835 35.003,16.373 35.759,16.492C36.539,16.536 37.276,16.12 37.641,15.43C37.914,14.844 38.037,14.199 38,13.553C37.996,11.978 37.734,10.414 37.223,8.924C36.988,8.12 36.569,7.382 36,6.767C35.255,6.015 34.257,5.566 33.2,5.507C31.981,5.621 31.949,7.108 32.024,7.745Z" style="fill:rgb(171,218,87);fill-rule:nonzero;"/>
                </g>
            </g>
            <g transform="matrix(1.259729,0,0,1.079477,1003.74566,47.058335)">
                <path d="M463,2229C463,2229 465.112,2199.086 490,2193C511.196,2187.817 524,2209 524,2209C524,2209 532.344,2176.554 565,2176C591.688,2175.547 600,2208 600,2208C600,2208 611.71,2190.5 633,2193C659.995,2196.17 659,2228 659,2228L659.359,2238.1L463.314,2238.907L463,2229Z" style="fill:rgb(112,135,71);"/>
            </g>
        </g>
    </g>
</svg>
