<?xml version="1.0" encoding="UTF-8" standalone="no"?>
<!DOCTYPE svg PUBLIC "-//W3C//DTD SVG 1.1//EN" "http://www.w3.org/Graphics/SVG/1.1/DTD/svg11.dtd">
<svg width="100%" height="100%" viewBox="0 0 1440 2560" version="1.1" xmlns="http://www.w3.org/2000/svg" xmlns:xlink="http://www.w3.org/1999/xlink" xml:space="preserve" xmlns:serif="http://www.serif.com/" style="fill-rule:evenodd;clip-rule:evenodd;stroke-linejoin:round;stroke-miterlimit:2;">
    <g transform="matrix(1,0,0,1,-2980,-2610)">
        <rect id="Mesa-de-trabajo6" serif:id="Mesa de trabajo6" x="2980" y="2610" width="1440" height="2560" style="fill:rgb(247,247,247);"/>
        <clipPath id="_clip1">
            <rect id="Mesa-de-trabajo61" serif:id="Mesa de trabajo6" x="2980" y="2610" width="1440" height="2560"/>
        </clipPath>
        <g clip-path="url(#_clip1)">
            <g transform="matrix(1.266621,0,0,1.573428,-1164.437906,-2033.955655)">
                <path d="M4321,3131.397L4321,4398.603C4321,4442.976 4276.249,4479 4221.129,4479L3445.871,4479C3390.751,4479 3346,4442.976 3346,4398.603L3346,3131.397C3346,3087.024 3390.751,3051 3445.871,3051L4221.129,3051C4276.249,3051 4321,3087.024 4321,3131.397Z" style="fill:rgb(217,232,211);"/>
            </g>
            <g transform="matrix(1.098175,-0.160926,0.170467,1.163285,-2189.227185,185.129705)">
                <path d="M4321,3145.281L4321,4384.719C4321,4436.754 4276.249,4479 4221.129,4479L3445.871,4479C3390.751,4479 3346,4436.754 3346,4384.719L3346,3145.281C3346,3093.246 3390.751,3051 3445.871,3051L4221.129,3051C4276.249,3051 4321,3093.246 4321,3145.281Z" style="fill:rgb(188,191,60);"/>
            </g>
            <g transform="matrix(1.105501,0.098761,-0.104616,1.171045,931.480535,-885.987493)">
                <path d="M4321,3145.281L4321,4384.719C4321,4436.754 4276.249,4479 4221.129,4479L3445.871,4479C3390.751,4479 3346,4436.754 3346,4384.719L3346,3145.281C3346,3093.246 3390.751,3051 3445.871,3051L4221.129,3051C4276.249,3051 4321,3093.246 4321,3145.281Z" style="fill:rgb(119,156,101);"/>
            </g>
        </g>
    </g>
</svg>
