<?xml version="1.0" encoding="UTF-8" standalone="no"?>
<!DOCTYPE svg PUBLIC "-//W3C//DTD SVG 1.1//EN" "http://www.w3.org/Graphics/SVG/1.1/DTD/svg11.dtd">
<svg width="100%" height="100%" viewBox="0 0 1440 2560" version="1.1" xmlns="http://www.w3.org/2000/svg" xmlns:xlink="http://www.w3.org/1999/xlink" xml:space="preserve" xmlns:serif="http://www.serif.com/" style="fill-rule:evenodd;clip-rule:evenodd;stroke-linejoin:round;stroke-miterlimit:2;">
    <g transform="matrix(1,0,0,1,0,-2610)">
        <rect id="Mesa-de-trabajo4" serif:id="Mesa de trabajo4" x="0" y="2610" width="1440" height="2560" style="fill:none;"/>
        <clipPath id="_clip1">
            <rect id="Mesa-de-trabajo41" serif:id="Mesa de trabajo4" x="0" y="2610" width="1440" height="2560"/>
        </clipPath>
        <g clip-path="url(#_clip1)">
            <g transform="matrix(1,0,0,1,0,2610)">
                <rect x="-9" y="0" width="1449" height="2561" style="fill:url(#_Radial2);"/>
            </g>
            <g transform="matrix(1.165842,0,0,1.165842,-394.04703,2465.772277)">
                <path d="M538.979,392.96C512.496,473.658 436.507,532 347,532C235.513,532 145,441.487 145,330C145,220.666 232.052,131.503 340.567,128.101L340.567,124.569L486.745,124.569C527.558,89.277 586.469,67.1 651.93,67.1C711.216,67.1 765.13,85.29 805.092,114.94C833.372,74.421 878.169,48.229 928.554,48.229C957.877,48.229 985.308,57.101 1008.691,72.504C1041.439,18.748 1105.655,-17.817 1179.446,-17.817C1275.203,-17.817 1354.837,43.758 1370.502,124.569L1577.442,124.569L1577.442,207.368C1609.44,243.113 1628.907,290.305 1628.907,342.008C1628.907,453.495 1538.393,544.008 1426.907,544.008C1315.42,544.008 1224.907,453.495 1224.907,342.008C1224.907,334.668 1225.299,327.419 1226.064,320.281C1211.129,323.548 1195.515,325.282 1179.446,325.282C1137.25,325.282 1098.186,313.326 1066.345,293.036C1040.656,347.306 988.57,384.467 928.554,384.467C891.466,384.467 857.406,370.275 830.732,346.624C790.055,389.367 725.082,417.062 651.93,417.062C610.724,417.062 572.114,408.274 538.979,392.96Z" style="fill:white;fill-opacity:0.64;"/>
            </g>
            <g transform="matrix(1.47619,0,0,1.47619,-338.857143,1497.071429)">
                <circle cx="888" cy="885" r="147" style="fill:rgb(251,233,119);"/>
            </g>
            <g transform="matrix(1.165842,0,0,1.165842,-389.04703,2373.772277)">
                <path d="M538.979,392.96C512.496,473.658 436.507,532 347,532C235.513,532 145,441.487 145,330C145,220.666 232.052,131.503 340.567,128.101L340.567,124.569L486.745,124.569C527.558,89.277 586.469,67.1 651.93,67.1C711.216,67.1 765.13,85.29 805.092,114.94C833.372,74.421 878.169,48.229 928.554,48.229C957.877,48.229 985.308,57.101 1008.691,72.504C1041.439,18.748 1105.655,-17.817 1179.446,-17.817C1275.203,-17.817 1354.837,43.758 1370.502,124.569L1577.442,124.569L1577.442,207.368C1609.44,243.113 1628.907,290.305 1628.907,342.008C1628.907,453.495 1538.393,544.008 1426.907,544.008C1315.42,544.008 1224.907,453.495 1224.907,342.008C1224.907,334.668 1225.299,327.419 1226.064,320.281C1211.129,323.548 1195.515,325.282 1179.446,325.282C1137.25,325.282 1098.186,313.326 1066.345,293.036C1040.656,347.306 988.57,384.467 928.554,384.467C891.466,384.467 857.406,370.275 830.732,346.624C790.055,389.367 725.082,417.062 651.93,417.062C610.724,417.062 572.114,408.274 538.979,392.96Z" style="fill:white;"/>
            </g>
        </g>
    </g>
    <defs>
        <radialGradient id="_Radial2" cx="0" cy="0" r="1" gradientUnits="userSpaceOnUse" gradientTransform="matrix(-1568,-526,929.665977,-2771.323671,950,142)"><stop offset="0" style="stop-color:white;stop-opacity:1"/><stop offset="0.54" style="stop-color:rgb(236,231,210);stop-opacity:1"/><stop offset="1" style="stop-color:rgb(229,222,192);stop-opacity:1"/></radialGradient>
    </defs>
</svg>
